<?xml version="1.0" standalone="no"?>
<!DOCTYPE svg PUBLIC "-//W3C//DTD SVG 20010904//EN"
 "http://www.w3.org/TR/2001/REC-SVG-20010904/DTD/svg10.dtd">
<svg version="1.0" xmlns="http://www.w3.org/2000/svg"
 width="180.000000pt" height="180.000000pt" viewBox="0 0 180.000000 180.000000"
 preserveAspectRatio="xMidYMid meet">
<metadata>
Created by potrace 1.14, written by Peter Selinger 2001-2017
</metadata>
<g transform="translate(0.000000,180.000000) scale(0.100000,-0.100000)"
fill="#000000" stroke="none">
<path d="M123 1413 c-3 -6 -11 -9 -19 -6 -8 3 -14 -1 -14 -11 0 -9 -3 -16 -8
-16 -12 0 -7 -941 6 -970 6 -14 11 -21 11 -17 1 5 7 2 14 -5 11 -10 107 -13
491 -13 l478 0 22 25 c21 25 21 28 21 496 0 359 -3 475 -12 486 -7 8 -9 19 -5
23 4 5 -1 5 -10 2 -11 -4 -17 -2 -15 5 3 17 -954 18 -960 1z m516 -207 c10 -7
12 -6 6 4 -9 15 9 6 38 -18 9 -8 17 -12 17 -8 0 13 28 -20 48 -56 14 -25 19
-48 16 -84 -6 -77 -8 -83 -19 -81 -5 1 -10 -2 -9 -8 1 -5 -7 -18 -17 -27 -11
-10 -19 -15 -19 -11 0 4 -7 -2 -16 -13 -8 -10 -12 -13 -9 -5 6 10 2 10 -16 -2
-25 -15 -91 -16 -123 -2 -26 11 -82 66 -96 94 -10 19 -10 22 2 15 10 -6 11 -5
2 7 -7 8 -12 28 -12 44 -1 34 24 95 38 95 6 0 10 6 10 13 0 7 9 18 21 25 17
11 20 11 13 0 -6 -10 -4 -10 9 1 9 7 15 16 13 20 -6 10 87 7 103 -3z m-103
-468 c-5 9 10 12 64 12 54 0 69 -3 64 -12 -5 -9 -2 -9 9 1 9 7 17 9 17 4 0 -5
14 -9 30 -8 17 1 30 -2 30 -7 0 -5 5 -6 10 -3 6 3 10 2 10 -2 0 -5 10 -10 22
-10 13 -1 24 -7 26 -12 2 -5 10 -7 18 -4 7 3 17 -2 20 -11 3 -9 10 -13 15 -10
5 3 12 -2 15 -10 3 -9 13 -16 21 -16 8 0 12 -4 9 -9 -4 -5 -1 -11 5 -13 6 -2
11 -26 12 -53 l2 -50 -335 0 -335 0 -2 30 c-1 16 3 36 10 44 8 10 9 13 0 8 -8
-5 -8 -1 0 17 7 14 13 23 15 21 2 -2 12 5 23 16 10 10 26 19 34 19 8 0 15 4
15 9 0 10 27 21 44 20 5 0 13 5 17 13 7 10 9 10 9 -2 0 -11 3 -12 8 -3 4 6 19
13 34 15 15 2 30 7 34 11 4 4 14 1 22 -6 13 -9 14 -9 8 1z"/>
<path d="M1282 1421 c-8 -6 -11 -1040 -2 -1042 36 -8 140 -4 143 5 2 6 3 243
3 526 l-1 514 -67 1 c-37 1 -71 -1 -76 -4z"/>
<path d="M1582 1421 c-4 -4 -8 -240 -7 -526 l0 -520 68 0 c38 -1 71 4 75 10
11 17 8 1026 -3 1033 -12 8 -122 10 -133 3z"/>
</g>
</svg>
